<svg width="168" height="56" viewBox="0 0 168 56" fill="none" xmlns="http://www.w3.org/2000/svg">
<rect x="-0.5" y="0.5" width="167" height="55" rx="6.5" transform="matrix(-1 0 0 1 167 0)" fill="black"/>
<rect x="-0.5" y="0.5" width="167" height="55" rx="6.5" transform="matrix(-1 0 0 1 167 0)" stroke="#A6A6A6"/>
<path d="M80.5631 26.8815V30.0889H78.5527V32.1923H80.5631V39.3393C80.5631 41.7797 81.6671 42.7559 84.4445 42.7559C84.9326 42.7559 85.3975 42.6978 85.8042 42.6281V40.5479C85.4556 40.5828 85.2348 40.606 84.8513 40.606C83.6078 40.606 83.0616 40.025 83.0616 38.7001V32.1923H85.8042V30.0889H83.0616V26.8815H80.5631Z" fill="white"/>
<path d="M92.8796 42.9302C96.5751 42.9302 98.8412 40.4549 98.8412 36.3527C98.8412 32.2737 96.5635 29.7868 92.8796 29.7868C89.1841 29.7868 86.9064 32.2737 86.9064 36.3527C86.9064 40.4549 89.1725 42.9302 92.8796 42.9302ZM92.8796 40.7106C90.7065 40.7106 89.4862 39.1185 89.4862 36.3527C89.4862 33.6101 90.7065 32.0064 92.8796 32.0064C95.0411 32.0064 96.273 33.6101 96.273 36.3527C96.273 39.1069 95.0411 40.7106 92.8796 40.7106Z" fill="white"/>
<path d="M100.78 42.6862H103.279V35.2138C103.279 33.4358 104.615 32.2388 106.509 32.2388C106.951 32.2388 107.695 32.3202 107.904 32.3899V29.9262C107.637 29.8565 107.16 29.8216 106.788 29.8216C105.138 29.8216 103.732 30.7281 103.372 31.9715H103.186V30.0308H100.78V42.6862Z" fill="white"/>
<path d="M114.108 31.9134C115.955 31.9134 117.164 33.2034 117.222 35.1906H110.83C110.97 33.215 112.26 31.9134 114.108 31.9134ZM117.21 39.2696C116.746 40.2574 115.711 40.8036 114.201 40.8036C112.202 40.8036 110.912 39.3974 110.83 37.1778V37.0383H119.767V36.1667C119.767 32.1923 117.64 29.7868 114.119 29.7868C110.552 29.7868 108.285 32.355 108.285 36.3992C108.285 40.4433 110.505 42.9302 114.131 42.9302C117.025 42.9302 119.047 41.5357 119.616 39.2696H117.21Z" fill="white"/>
<path d="M64.1781 38.0128C64.3708 41.1203 66.9605 43.1078 70.8148 43.1078C74.9342 43.1078 77.5118 41.024 77.5118 37.6996C77.5118 35.0858 76.0423 33.6404 72.477 32.8093L70.5619 32.3396C68.2974 31.8096 67.382 31.099 67.382 29.8583C67.382 28.2925 68.8033 27.2687 70.9353 27.2687C72.9588 27.2687 74.356 28.2684 74.609 29.8704H77.2348C77.0782 26.9435 74.5006 24.8838 70.9714 24.8838C67.1773 24.8838 64.6478 26.9435 64.6478 30.039C64.6478 32.5925 66.0812 34.1102 69.2249 34.8449L71.4653 35.387C73.7658 35.929 74.7776 36.7239 74.7776 38.0489C74.7776 39.5906 73.1877 40.7108 71.0196 40.7108C68.6949 40.7108 67.0809 39.6629 66.8521 38.0128H64.1781Z" fill="white"/>
<path d="M38.2958 29.8216C36.5759 29.8216 35.0884 30.6816 34.3214 32.1226H34.1355V30.0308H31.7299V46.893H34.2284V40.7687H34.426C35.0884 42.1051 36.5178 42.8954 38.3191 42.8954C41.5149 42.8954 43.5486 40.3736 43.5486 36.3527C43.5486 32.3318 41.5149 29.8216 38.2958 29.8216ZM37.5869 40.6525C35.4951 40.6525 34.182 39.0023 34.182 36.3643C34.182 33.7147 35.4951 32.0645 37.5986 32.0645C39.7136 32.0645 40.9803 33.6798 40.9803 36.3527C40.9803 39.0372 39.7136 40.6525 37.5869 40.6525Z" fill="white"/>
<path d="M52.2913 29.8216C50.5714 29.8216 49.0839 30.6816 48.3169 32.1226H48.131V30.0308H45.7254V46.893H48.224V40.7687H48.4215C49.0839 42.1051 50.5133 42.8954 52.3146 42.8954C55.5104 42.8954 57.5441 40.3736 57.5441 36.3527C57.5441 32.3318 55.5104 29.8216 52.2913 29.8216ZM51.5824 40.6525C49.4907 40.6525 48.1775 39.0023 48.1775 36.3643C48.1775 33.7147 49.4907 32.0645 51.5941 32.0645C53.7091 32.0645 54.9758 33.6798 54.9758 36.3527C54.9758 39.0372 53.7091 40.6525 51.5824 40.6525Z" fill="white"/>
<path d="M27.2471 42.6862H30.1138L23.8384 25.3054H20.9356L14.6602 42.6862H17.4305L19.0325 38.073H25.6572L27.2471 42.6862ZM22.2485 28.4611H22.4532L24.9706 35.8085H19.719L22.2485 28.4611Z" fill="white"/>
<path d="M149.953 28.4215C149.983 26.0681 151.247 23.8413 153.252 22.6086C151.987 20.8022 149.868 19.6568 147.664 19.5879C145.313 19.3411 143.034 20.9946 141.836 20.9946C140.615 20.9946 138.77 19.6124 136.784 19.6532C134.195 19.7369 131.782 21.2088 130.522 23.4722C127.814 28.16 129.834 35.0495 132.428 38.8387C133.725 40.6942 135.242 42.7669 137.226 42.6934C139.168 42.6128 139.894 41.4551 142.238 41.4551C144.56 41.4551 145.24 42.6934 147.265 42.6466C149.349 42.6128 150.662 40.7829 151.914 38.9098C152.846 37.5877 153.564 36.1265 154.04 34.5803C151.591 33.5446 149.955 31.0803 149.953 28.4215Z" fill="white"/>
<path d="M146.128 17.0959C147.264 15.732 147.824 13.9789 147.689 12.209C145.953 12.3913 144.349 13.2209 143.198 14.5324C142.072 15.8139 141.486 17.5361 141.597 19.2384C143.333 19.2563 145.04 18.4492 146.128 17.0959Z" fill="white"/>
<path d="M73.8586 21.254C72.4866 21.254 71.4413 20.9273 70.7226 20.274C70.004 19.63 69.6446 18.7107 69.6446 17.516C69.6446 17.096 69.7006 16.6293 69.8126 16.116C69.934 15.6027 70.0973 15.1033 70.3026 14.618L71.5066 14.968C71.3293 15.36 71.1846 15.7613 71.0726 16.172C70.9606 16.5733 70.9046 16.9327 70.9046 17.25C70.9046 17.894 71.1193 18.398 71.5486 18.762C71.9873 19.1167 72.5846 19.294 73.3406 19.294H74.3766C75.2353 19.294 75.8606 19.1073 76.2526 18.734C76.654 18.3513 76.8546 17.7633 76.8546 16.97C76.8546 16.7367 76.8313 16.452 76.7846 16.116C76.738 15.78 76.6773 15.4207 76.6026 15.038L76.3366 13.778L77.6806 13.512L77.9326 14.758C78.0073 15.1687 78.068 15.5653 78.1146 15.948C78.1613 16.3307 78.1846 16.6713 78.1846 16.97C78.1846 18.4447 77.8346 19.5273 77.1346 20.218C76.444 20.9087 75.352 21.254 73.8586 21.254ZM73.8166 13.68C73.5926 13.68 73.406 13.6147 73.2566 13.484C73.1166 13.344 73.0466 13.1247 73.0466 12.826C73.0466 12.518 73.1166 12.2987 73.2566 12.168C73.406 12.028 73.5926 11.958 73.8166 11.958H74.0546C74.2786 11.958 74.4606 12.028 74.6006 12.168C74.75 12.2987 74.8246 12.518 74.8246 12.826C74.8246 13.1247 74.75 13.344 74.6006 13.484C74.4606 13.6147 74.2786 13.68 74.0546 13.68H73.8166ZM79.3556 17.18L81.8336 14.898L78.4736 11.538L79.5656 10.418L82.9816 13.834C83.2149 13.6007 83.3736 13.3673 83.4576 13.134C83.5509 12.8913 83.5976 12.5647 83.5976 12.154V8.64H85.0816V12.154C85.0816 12.434 85.0583 12.686 85.0116 12.91C84.9743 13.1247 84.9089 13.3347 84.8156 13.54C84.7223 13.736 84.5963 13.9273 84.4376 14.114C84.2789 14.3007 84.0829 14.4967 83.8496 14.702L84.4656 15.304C84.6523 15.4907 84.8063 15.6633 84.9276 15.822C85.0583 15.9807 85.1609 16.1393 85.2356 16.298C85.3196 16.4473 85.3756 16.6013 85.4036 16.76C85.4409 16.9187 85.4596 17.0867 85.4596 17.264C85.4596 17.5067 85.4176 17.7353 85.3336 17.95C85.2496 18.1553 85.1283 18.3373 84.9696 18.496C84.8203 18.6547 84.6383 18.7807 84.4236 18.874C84.2089 18.958 83.9709 19 83.7096 19H79.3556V17.18ZM82.6736 15.724L81.0916 17.11L81.1056 17.166H84.1296L82.6736 15.724ZM86.894 8.64H88.392V19H86.894V8.64ZM96.9836 22.36C95.7236 22.36 94.7622 22.0333 94.0996 21.38C93.4369 20.7267 93.1056 19.8073 93.1056 18.622C93.1056 18.202 93.1616 17.7353 93.2736 17.222C93.3949 16.7087 93.5582 16.2047 93.7636 15.71L94.9676 16.074C94.7902 16.466 94.6456 16.872 94.5336 17.292C94.4216 17.7027 94.3656 18.0667 94.3656 18.384C94.3656 19.0187 94.5522 19.5087 94.9256 19.854C95.2989 20.2087 95.8122 20.386 96.4656 20.386H97.5016C97.8936 20.386 98.2202 20.3393 98.4816 20.246C98.7522 20.1527 98.9669 20.0033 99.1256 19.798C99.2936 19.5927 99.4149 19.322 99.4896 18.986C99.5642 18.65 99.6016 18.2393 99.6016 17.754V8.64H101.086V17.166H102.682V18.622L102.304 19H101.002C100.843 20.148 100.437 20.9927 99.7836 21.534C99.1302 22.0847 98.1969 22.36 96.9836 22.36ZM102.3 17.544L102.678 17.166C102.948 17.166 103.172 17.1613 103.35 17.152C103.527 17.1427 103.695 17.1193 103.854 17.082C103.844 17.0167 103.835 16.9513 103.826 16.886C103.826 16.8207 103.826 16.7507 103.826 16.676C103.826 15.6027 104.484 14.6787 105.8 13.904L106.64 13.4H108.264L109.342 16.284C109.472 16.6387 109.612 16.8767 109.762 16.998C109.92 17.11 110.154 17.166 110.462 17.166H110.84V18.622L110.462 19C109.902 19 109.458 18.916 109.132 18.748C108.814 18.5707 108.539 18.286 108.306 17.894L108.222 17.908V19H106.472C105.818 19 105.286 18.8787 104.876 18.636C104.474 18.3933 104.19 18.0713 104.022 17.67H103.91C103.667 18.5567 103.13 19 102.3 19V17.544ZM105.002 16.494C105.002 16.7367 105.095 16.9093 105.282 17.012C105.478 17.1147 105.739 17.166 106.066 17.166H107.97L107.144 14.982L106.164 15.416C105.79 15.5747 105.501 15.7427 105.296 15.92C105.1 16.0973 105.002 16.2887 105.002 16.494ZM110.462 17.544L110.84 17.166H111.666C112.151 17.166 112.595 17.1567 112.996 17.138C113.397 17.1193 113.78 17.082 114.144 17.026C114.508 16.9607 114.872 16.8673 115.236 16.746C115.609 16.6247 116.015 16.4567 116.454 16.242L117.196 15.878V15.808L115.012 15.346L112.66 14.758V15.864H111.246V14.786C111.246 13.6473 111.769 13.078 112.814 13.078C112.879 13.078 112.949 13.0827 113.024 13.092C113.099 13.092 113.183 13.1013 113.276 13.12C113.379 13.1387 113.5 13.1667 113.64 13.204C113.78 13.232 113.948 13.274 114.144 13.33L117.056 14.086C117.476 14.1887 117.887 14.268 118.288 14.324C118.699 14.38 119.086 14.408 119.45 14.408H119.716V16.256H118.61L117.126 17.222C116.519 17.614 115.978 17.9313 115.502 18.174C115.026 18.4073 114.573 18.5847 114.144 18.706C113.724 18.8273 113.313 18.9067 112.912 18.944C112.52 18.9813 112.105 19 111.666 19H110.462V17.544Z" fill="white"/>
</svg>
