<svg width="189" height="56" viewBox="0 0 189 56" fill="none" xmlns="http://www.w3.org/2000/svg">
<rect x="-0.5" y="0.5" width="188" height="55" rx="4.5" transform="matrix(-1 0 0 1 188 0)" fill="black"/>
<rect x="-0.5" y="0.5" width="188" height="55" rx="4.5" transform="matrix(-1 0 0 1 188 0)" stroke="#A6A6A6"/>
<path d="M50.7871 30.4518C47.4943 30.4518 44.8105 32.9564 44.8105 36.406C44.8105 39.8346 47.4943 42.3602 50.7871 42.3602C54.0813 42.3602 56.7651 39.8346 56.7651 36.406C56.7637 32.9564 54.0799 30.4518 50.7871 30.4518ZM50.7871 40.0166C48.9825 40.0166 47.4271 38.5284 47.4271 36.4074C47.4271 34.264 48.9839 32.7982 50.7871 32.7982C52.5917 32.7982 54.1471 34.264 54.1471 36.4074C54.1471 38.527 52.5917 40.0166 50.7871 40.0166ZM37.7475 30.4518C34.4547 30.4518 31.7709 32.9564 31.7709 36.406C31.7709 39.8346 34.4547 42.3602 37.7475 42.3602C41.0417 42.3602 43.7255 39.8346 43.7255 36.406C43.7255 32.9564 41.0417 30.4518 37.7475 30.4518ZM37.7475 40.0166C35.9429 40.0166 34.3875 38.5284 34.3875 36.4074C34.3875 34.264 35.9443 32.7982 37.7475 32.7982C39.5521 32.7982 41.1075 34.264 41.1075 36.4074C41.1089 38.527 39.5521 40.0166 37.7475 40.0166ZM22.2383 32.2802V34.8058H28.2835C28.1029 36.2268 27.6297 37.2642 26.9073 37.9852C26.0281 38.8644 24.6519 39.8346 22.2383 39.8346C18.5171 39.8346 15.6079 36.8344 15.6079 33.1132C15.6079 29.392 18.5171 26.3918 22.2383 26.3918C24.2459 26.3918 25.7117 27.1814 26.7939 28.1964L28.5761 26.4142C27.0641 24.9708 25.0579 23.8662 22.2383 23.8662C17.1409 23.8662 12.8555 28.0158 12.8555 33.1132C12.8555 38.2106 17.1409 42.3602 22.2383 42.3602C24.9893 42.3602 27.0655 41.4572 28.6881 39.766C30.3569 38.0972 30.8763 35.7508 30.8763 33.8566C30.8763 33.2714 30.8315 32.7296 30.7405 32.2788H22.2383V32.2802ZM85.6695 34.2416C85.1739 32.9116 83.6619 30.4518 80.5721 30.4518C77.5047 30.4518 74.9553 32.8654 74.9553 36.406C74.9553 39.7436 77.4823 42.3602 80.8647 42.3602C83.5933 42.3602 85.1725 40.6914 85.8277 39.7212L83.7977 38.3674C83.1215 39.36 82.1961 40.0138 80.8647 40.0138C79.5347 40.0138 78.5869 39.4048 77.9779 38.2092L85.9397 34.9164L85.6695 34.2416ZM77.5495 36.2268C77.4823 33.9252 79.3317 32.7534 80.6631 32.7534C81.7005 32.7534 82.5797 33.2728 82.8737 34.0162L77.5495 36.2268ZM71.0773 42.0004H73.6925V24.499H71.0773V42.0004ZM66.7905 31.7832H66.7009C66.1143 31.0832 64.9859 30.4518 63.5663 30.4518C60.5885 30.4518 57.8599 33.0684 57.8599 36.4298C57.8599 39.7674 60.5885 42.3616 63.5663 42.3616C64.9873 42.3616 66.1143 41.7302 66.7009 41.0092H66.7905V41.866C66.7905 44.1438 65.5725 45.3618 63.6111 45.3618C62.0095 45.3618 61.0169 44.2124 60.6109 43.2422L58.3331 44.19C58.9869 45.7678 60.7229 47.7082 63.6111 47.7082C66.6785 47.7082 69.2727 45.9036 69.2727 41.5048V30.8144H66.7919V31.7832H66.7905ZM63.7917 40.0166C61.9871 40.0166 60.4765 38.5046 60.4765 36.4298C60.4765 34.3312 61.9871 32.7982 63.7917 32.7982C65.5725 32.7982 66.9711 34.3312 66.9711 36.4298C66.9711 38.5046 65.5725 40.0166 63.7917 40.0166ZM97.9251 24.499H91.6657V42.0004H94.2767V35.37H97.9237C100.819 35.37 103.666 33.2742 103.666 29.9352C103.666 26.5962 100.82 24.499 97.9251 24.499ZM97.9923 32.934H94.2767V26.935H97.9923C99.9453 26.935 101.054 28.552 101.054 29.9352C101.054 31.2904 99.9453 32.934 97.9923 32.934ZM114.137 30.421C112.246 30.421 110.287 31.254 109.476 33.1006L111.795 34.068C112.29 33.1006 113.214 32.7842 114.182 32.7842C115.533 32.7842 116.906 33.5948 116.929 35.0354V35.216C116.455 34.9458 115.442 34.5412 114.204 34.5412C111.705 34.5412 109.16 35.9146 109.16 38.4808C109.16 40.823 111.21 42.3308 113.506 42.3308C115.261 42.3308 116.23 41.5426 116.838 40.6186H116.927V41.9696H119.45V35.2594C119.451 32.1542 117.13 30.421 114.137 30.421ZM113.821 40.0124C112.967 40.0124 111.772 39.584 111.772 38.5256C111.772 37.1746 113.259 36.6566 114.543 36.6566C115.69 36.6566 116.231 36.9044 116.929 37.2418C116.726 38.8644 115.33 40.0124 113.821 40.0124ZM128.637 30.8032L125.642 38.3912H125.553L122.445 30.8032H119.631L124.291 41.4082L121.634 47.3078H124.358L131.542 30.8032H128.637ZM105.108 42.0004H107.719V24.499H105.108V42.0004Z" fill="white"/>
<path d="M82.8586 20.254C81.4866 20.254 80.4413 19.9273 79.7226 19.274C79.004 18.63 78.6446 17.7107 78.6446 16.516C78.6446 16.096 78.7006 15.6293 78.8126 15.116C78.934 14.6027 79.0973 14.1033 79.3026 13.618L80.5066 13.968C80.3293 14.36 80.1846 14.7613 80.0726 15.172C79.9606 15.5733 79.9046 15.9327 79.9046 16.25C79.9046 16.894 80.1193 17.398 80.5486 17.762C80.9873 18.1167 81.5846 18.294 82.3406 18.294H83.3766C84.2353 18.294 84.8606 18.1073 85.2526 17.734C85.654 17.3513 85.8546 16.7633 85.8546 15.97C85.8546 15.7367 85.8313 15.452 85.7846 15.116C85.738 14.78 85.6773 14.4207 85.6026 14.038L85.3366 12.778L86.6806 12.512L86.9326 13.758C87.0073 14.1687 87.068 14.5653 87.1146 14.948C87.1613 15.3307 87.1846 15.6713 87.1846 15.97C87.1846 17.4447 86.8346 18.5273 86.1346 19.218C85.444 19.9087 84.352 20.254 82.8586 20.254ZM82.8166 12.68C82.5926 12.68 82.406 12.6147 82.2566 12.484C82.1166 12.344 82.0466 12.1247 82.0466 11.826C82.0466 11.518 82.1166 11.2987 82.2566 11.168C82.406 11.028 82.5926 10.958 82.8166 10.958H83.0546C83.2786 10.958 83.4606 11.028 83.6006 11.168C83.75 11.2987 83.8246 11.518 83.8246 11.826C83.8246 12.1247 83.75 12.344 83.6006 12.484C83.4606 12.6147 83.2786 12.68 83.0546 12.68H82.8166ZM88.3556 16.18L90.8336 13.898L87.4736 10.538L88.5656 9.418L91.9816 12.834C92.2149 12.6007 92.3736 12.3673 92.4576 12.134C92.5509 11.8913 92.5976 11.5647 92.5976 11.154V7.64H94.0816V11.154C94.0816 11.434 94.0583 11.686 94.0116 11.91C93.9743 12.1247 93.9089 12.3347 93.8156 12.54C93.7223 12.736 93.5963 12.9273 93.4376 13.114C93.2789 13.3007 93.0829 13.4967 92.8496 13.702L93.4656 14.304C93.6523 14.4907 93.8063 14.6633 93.9276 14.822C94.0583 14.9807 94.1609 15.1393 94.2356 15.298C94.3196 15.4473 94.3756 15.6013 94.4036 15.76C94.4409 15.9187 94.4596 16.0867 94.4596 16.264C94.4596 16.5067 94.4176 16.7353 94.3336 16.95C94.2496 17.1553 94.1283 17.3373 93.9696 17.496C93.8203 17.6547 93.6383 17.7807 93.4236 17.874C93.2089 17.958 92.9709 18 92.7096 18H88.3556V16.18ZM91.6736 14.724L90.0916 16.11L90.1056 16.166H93.1296L91.6736 14.724ZM95.894 7.64H97.392V18H95.894V7.64ZM105.984 21.36C104.724 21.36 103.762 21.0333 103.1 20.38C102.437 19.7267 102.106 18.8073 102.106 17.622C102.106 17.202 102.162 16.7353 102.274 16.222C102.395 15.7087 102.558 15.2047 102.764 14.71L103.968 15.074C103.79 15.466 103.646 15.872 103.534 16.292C103.422 16.7027 103.366 17.0667 103.366 17.384C103.366 18.0187 103.552 18.5087 103.926 18.854C104.299 19.2087 104.812 19.386 105.466 19.386H106.502C106.894 19.386 107.22 19.3393 107.482 19.246C107.752 19.1527 107.967 19.0033 108.126 18.798C108.294 18.5927 108.415 18.322 108.49 17.986C108.564 17.65 108.602 17.2393 108.602 16.754V7.64H110.086V16.166H111.682V17.622L111.304 18H110.002C109.843 19.148 109.437 19.9927 108.784 20.534C108.13 21.0847 107.197 21.36 105.984 21.36ZM111.3 16.544L111.678 16.166C111.948 16.166 112.172 16.1613 112.35 16.152C112.527 16.1427 112.695 16.1193 112.854 16.082C112.844 16.0167 112.835 15.9513 112.826 15.886C112.826 15.8207 112.826 15.7507 112.826 15.676C112.826 14.6027 113.484 13.6787 114.8 12.904L115.64 12.4H117.264L118.342 15.284C118.472 15.6387 118.612 15.8767 118.762 15.998C118.92 16.11 119.154 16.166 119.462 16.166H119.84V17.622L119.462 18C118.902 18 118.458 17.916 118.132 17.748C117.814 17.5707 117.539 17.286 117.306 16.894L117.222 16.908V18H115.472C114.818 18 114.286 17.8787 113.876 17.636C113.474 17.3933 113.19 17.0713 113.022 16.67H112.91C112.667 17.5567 112.13 18 111.3 18V16.544ZM114.002 15.494C114.002 15.7367 114.095 15.9093 114.282 16.012C114.478 16.1147 114.739 16.166 115.066 16.166H116.97L116.144 13.982L115.164 14.416C114.79 14.5747 114.501 14.7427 114.296 14.92C114.1 15.0973 114.002 15.2887 114.002 15.494ZM119.462 16.544L119.84 16.166H120.666C121.151 16.166 121.595 16.1567 121.996 16.138C122.397 16.1193 122.78 16.082 123.144 16.026C123.508 15.9607 123.872 15.8673 124.236 15.746C124.609 15.6247 125.015 15.4567 125.454 15.242L126.196 14.878V14.808L124.012 14.346L121.66 13.758V14.864H120.246V13.786C120.246 12.6473 120.769 12.078 121.814 12.078C121.879 12.078 121.949 12.0827 122.024 12.092C122.099 12.092 122.183 12.1013 122.276 12.12C122.379 12.1387 122.5 12.1667 122.64 12.204C122.78 12.232 122.948 12.274 123.144 12.33L126.056 13.086C126.476 13.1887 126.887 13.268 127.288 13.324C127.699 13.38 128.086 13.408 128.45 13.408H128.716V15.256H127.61L126.126 16.222C125.519 16.614 124.978 16.9313 124.502 17.174C124.026 17.4073 123.573 17.5847 123.144 17.706C122.724 17.8273 122.313 17.9067 121.912 17.944C121.52 17.9813 121.105 18 120.666 18H119.462V16.544Z" fill="white"/>
<g filter="url(#filter0_ii_830_2724)">
<path d="M143.361 10.5534C142.954 10.9846 142.713 11.6538 142.713 12.5204V43.4828C142.713 44.3508 142.954 45.0186 143.361 45.4498L143.465 45.5506L160.809 28.206V28.0016V27.7972L143.465 10.4512L143.361 10.5534Z" fill="url(#paint0_linear_830_2724)"/>
<path d="M166.589 33.9889L160.809 28.2054V28.001V27.7966L166.591 22.0146L166.721 22.0888L173.571 25.9809C175.527 27.0925 175.527 28.911 173.571 30.024L166.721 33.9161L166.589 33.9889Z" fill="url(#paint1_linear_830_2724)"/>
<g filter="url(#filter1_i_830_2724)">
<path d="M166.722 33.9146L160.808 28.001L143.361 45.4492C144.005 46.1324 145.071 46.2164 146.271 45.536L166.722 33.9146Z" fill="url(#paint2_linear_830_2724)"/>
</g>
<path d="M166.722 22.0876L146.271 10.4676C145.071 9.78578 144.005 9.87118 143.361 10.5544L160.81 28.0026L166.722 22.0876Z" fill="url(#paint3_linear_830_2724)"/>
</g>
<defs>
<filter id="filter0_ii_830_2724" x="142.713" y="9.99707" width="32.3242" height="36.0088" filterUnits="userSpaceOnUse" color-interpolation-filters="sRGB">
<feFlood flood-opacity="0" result="BackgroundImageFix"/>
<feBlend mode="normal" in="SourceGraphic" in2="BackgroundImageFix" result="shape"/>
<feColorMatrix in="SourceAlpha" type="matrix" values="0 0 0 0 0 0 0 0 0 0 0 0 0 0 0 0 0 0 127 0" result="hardAlpha"/>
<feOffset dy="-0.15"/>
<feComposite in2="hardAlpha" operator="arithmetic" k2="-1" k3="1"/>
<feColorMatrix type="matrix" values="0 0 0 0 0 0 0 0 0 0 0 0 0 0 0 0 0 0 0.12 0"/>
<feBlend mode="normal" in2="shape" result="effect1_innerShadow_830_2724"/>
<feColorMatrix in="SourceAlpha" type="matrix" values="0 0 0 0 0 0 0 0 0 0 0 0 0 0 0 0 0 0 127 0" result="hardAlpha"/>
<feOffset dy="0.15"/>
<feComposite in2="hardAlpha" operator="arithmetic" k2="-1" k3="1"/>
<feColorMatrix type="matrix" values="0 0 0 0 1 0 0 0 0 1 0 0 0 0 1 0 0 0 0.25 0"/>
<feBlend mode="normal" in2="effect1_innerShadow_830_2724" result="effect2_innerShadow_830_2724"/>
</filter>
<filter id="filter1_i_830_2724" x="143.361" y="28.001" width="23.3613" height="18.0049" filterUnits="userSpaceOnUse" color-interpolation-filters="sRGB">
<feFlood flood-opacity="0" result="BackgroundImageFix"/>
<feBlend mode="normal" in="SourceGraphic" in2="BackgroundImageFix" result="shape"/>
<feColorMatrix in="SourceAlpha" type="matrix" values="0 0 0 0 0 0 0 0 0 0 0 0 0 0 0 0 0 0 127 0" result="hardAlpha"/>
<feOffset dy="-0.15"/>
<feComposite in2="hardAlpha" operator="arithmetic" k2="-1" k3="1"/>
<feColorMatrix type="matrix" values="0 0 0 0 0 0 0 0 0 0 0 0 0 0 0 0 0 0 0.08 0"/>
<feBlend mode="normal" in2="shape" result="effect1_innerShadow_830_2724"/>
</filter>
<linearGradient id="paint0_linear_830_2724" x1="159.272" y1="12.1928" x2="135.777" y2="35.6876" gradientUnits="userSpaceOnUse">
<stop stop-color="#00A0FF"/>
<stop offset="0.0066" stop-color="#00A1FF"/>
<stop offset="0.2601" stop-color="#00BEFF"/>
<stop offset="0.5122" stop-color="#00D2FF"/>
<stop offset="0.7604" stop-color="#00DFFF"/>
<stop offset="1" stop-color="#00E3FF"/>
</linearGradient>
<linearGradient id="paint1_linear_830_2724" x1="176.117" y1="28.0011" x2="142.243" y2="28.0011" gradientUnits="userSpaceOnUse">
<stop stop-color="#FFE000"/>
<stop offset="0.4087" stop-color="#FFBD00"/>
<stop offset="0.7754" stop-color="#FFA500"/>
<stop offset="1" stop-color="#FF9C00"/>
</linearGradient>
<linearGradient id="paint2_linear_830_2724" x1="163.51" y1="31.2124" x2="131.648" y2="63.0743" gradientUnits="userSpaceOnUse">
<stop stop-color="#FF3A44"/>
<stop offset="1" stop-color="#C31162"/>
</linearGradient>
<linearGradient id="paint3_linear_830_2724" x1="138.967" y1="0.247296" x2="153.195" y2="14.4745" gradientUnits="userSpaceOnUse">
<stop stop-color="#32A071"/>
<stop offset="0.0685" stop-color="#2DA771"/>
<stop offset="0.4762" stop-color="#15CF74"/>
<stop offset="0.8009" stop-color="#06E775"/>
<stop offset="1" stop-color="#00F076"/>
</linearGradient>
</defs>
</svg>
