<svg width="119" height="123" viewBox="0 0 119 123" fill="none" xmlns="http://www.w3.org/2000/svg">
<path d="M59.4368 -0.000308291C56.283 -0.000308153 53.6143 2.66838 53.6143 5.8222C53.6143 8.97603 56.283 11.6446 59.4368 11.6446C62.5907 11.6446 65.2593 8.97603 65.2593 5.8222C65.2593 2.66837 62.5907 -0.000308429 59.4368 -0.000308291Z" fill="white" fill-opacity="0.2"/>
<path d="M32.5088 -0.000308291C29.3549 -0.000308153 26.6863 2.66838 26.6863 5.8222C26.6863 8.97603 29.3549 11.6446 32.5088 11.6446C35.6626 11.6446 38.3312 8.97603 38.3312 5.8222C38.5738 2.66837 35.9052 -0.00030844 32.5088 -0.000308291Z" fill="white" fill-opacity="0.2"/>
<path d="M5.82244 -0.000308291C2.66861 -0.000308153 -3.92365e-07 2.66838 -2.54507e-07 5.8222C-1.16649e-07 8.97603 2.66861 11.6446 5.82244 11.6446C8.97626 11.6446 11.6449 8.97603 11.6449 5.8222C11.6449 2.66837 8.97626 -0.000308429 5.82244 -0.000308291Z" fill="white" fill-opacity="0.2"/>
<path d="M59.4368 27.8991C56.283 27.8991 53.6143 30.5678 53.6143 33.7216C53.6143 36.8755 56.283 39.5441 59.4368 39.5441C62.5907 39.5441 65.2593 36.8755 65.2593 33.7216C65.2593 30.5678 62.5907 27.8991 59.4368 27.8991Z" fill="white" fill-opacity="0.2"/>
<path d="M32.5088 27.8991C29.3549 27.8991 26.6863 30.5678 26.6863 33.7216C26.6863 36.8755 29.3549 39.5441 32.5088 39.5441C35.6626 39.5441 38.3312 36.8755 38.3312 33.7216C38.3312 30.5678 35.9052 27.8991 32.5088 27.8991Z" fill="white" fill-opacity="0.2"/>
<path d="M5.82244 27.8991C2.66861 27.8991 -3.92365e-07 30.5678 -2.54507e-07 33.7216C-1.16649e-07 36.8755 2.66861 39.5441 5.82244 39.5441C8.97626 39.5441 11.6449 36.8755 11.6449 33.7216C11.6449 30.5678 8.97626 27.8991 5.82244 27.8991Z" fill="white" fill-opacity="0.2"/>
<path d="M65.2593 61.621C65.2593 58.4054 62.6525 55.7985 59.4368 55.7985C56.2212 55.7985 53.6143 58.4054 53.6143 61.621C53.6143 64.8367 56.2212 67.4435 59.4368 67.4435C62.6525 67.4435 65.2593 64.8367 65.2593 61.621Z" fill="white" fill-opacity="0.2"/>
<path d="M38.3312 61.621C38.3312 58.4054 35.7244 55.7985 32.5088 55.7985C29.2931 55.7985 26.6863 58.4054 26.6863 61.621C26.6863 64.8367 29.2931 67.4435 32.5088 67.4435C35.7244 67.4435 38.3312 64.8367 38.3312 61.621Z" fill="white" fill-opacity="0.2"/>
<path d="M11.6449 61.621C11.6449 58.4054 9.03809 55.7985 5.82244 55.7985C2.60678 55.7985 -3.95067e-07 58.4054 -2.54507e-07 61.621C-1.13946e-07 64.8367 2.60679 67.4435 5.82244 67.4435C9.03809 67.4435 11.6449 64.8367 11.6449 61.621Z" fill="white" fill-opacity="0.2"/>
<path d="M59.4368 83.4557C56.283 83.4557 53.6143 86.1243 53.6143 89.2781C53.6143 92.432 56.283 95.1006 59.4368 95.1006C62.5907 95.1006 65.2593 92.432 65.2593 89.2781C65.2593 86.1243 62.5907 83.4557 59.4368 83.4557Z" fill="white" fill-opacity="0.2"/>
<path d="M32.5088 83.4557C29.3549 83.4557 26.6863 86.1243 26.6863 89.2781C26.6863 92.432 29.3549 95.1006 32.5088 95.1006C35.6626 95.1006 38.3312 92.432 38.3312 89.2781C38.3312 86.1243 35.9052 83.4557 32.5088 83.4557Z" fill="white" fill-opacity="0.2"/>
<path d="M5.82244 83.4557C2.66861 83.4557 -3.92365e-07 86.1243 -2.54507e-07 89.2781C-1.16649e-07 92.432 2.66861 95.1006 5.82244 95.1006C8.97626 95.1006 11.6449 92.432 11.6449 89.2781C11.6449 86.1243 8.97626 83.4557 5.82244 83.4557Z" fill="white" fill-opacity="0.2"/>
<path d="M59.4368 111.355C56.283 111.355 53.6143 114.024 53.6143 117.178C53.6143 120.331 56.283 123 59.4368 123C62.5907 123 65.2593 120.331 65.2593 117.178C65.2593 114.024 62.5907 111.355 59.4368 111.355Z" fill="white" fill-opacity="0.2"/>
<path d="M32.5088 111.355C29.3549 111.355 26.6863 114.024 26.6863 117.178C26.6863 120.331 29.3549 123 32.5088 123C35.6626 123 38.3312 120.331 38.3312 117.178C38.5738 114.024 35.9052 111.355 32.5088 111.355Z" fill="white" fill-opacity="0.2"/>
<path d="M5.82244 111.355C2.66861 111.355 -3.92365e-07 114.024 -2.54507e-07 117.178C-1.16649e-07 120.331 2.66861 123 5.82244 123C8.97626 123 11.6449 120.331 11.6449 117.178C11.6449 114.024 8.97626 111.355 5.82244 111.355Z" fill="white" fill-opacity="0.2"/>
<path d="M113.053 -0.000315921C109.899 -0.000315783 107.231 2.66837 107.231 5.82219C107.231 8.97602 109.899 11.6446 113.053 11.6446C116.207 11.6446 118.876 8.97602 118.876 5.82219C118.876 2.66837 116.207 -0.000316059 113.053 -0.000315921Z" fill="white" fill-opacity="0.2"/>
<path d="M86.1232 -0.000308291C82.9693 -0.000308153 80.3007 2.66838 80.3007 5.8222C80.3007 8.97603 82.9693 11.6446 86.1232 11.6446C89.277 11.6446 91.9456 8.97603 91.9456 5.8222C92.1882 2.66837 89.5196 -0.00030844 86.1232 -0.000308291Z" fill="white" fill-opacity="0.2"/>
<path d="M113.053 27.8991C109.899 27.8991 107.231 30.5678 107.231 33.7216C107.231 36.8754 109.899 39.5441 113.053 39.5441C116.207 39.5441 118.876 36.8754 118.876 33.7216C118.876 30.5678 116.207 27.8991 113.053 27.8991Z" fill="white" fill-opacity="0.2"/>
<path d="M86.1232 27.8991C82.9693 27.8991 80.3007 30.5678 80.3007 33.7216C80.3007 36.8755 82.9693 39.5441 86.1232 39.5441C89.277 39.5441 91.9456 36.8755 91.9456 33.7216C91.9456 30.5678 89.5196 27.8991 86.1232 27.8991Z" fill="white" fill-opacity="0.2"/>
<path d="M113.053 55.7985C109.899 55.7985 107.231 58.4672 107.231 61.621C107.231 64.7749 109.899 67.4435 113.053 67.4435C116.207 67.4435 118.876 64.7749 118.876 61.621C118.876 58.4672 116.207 55.7985 113.053 55.7985Z" fill="white" fill-opacity="0.2"/>
<path d="M86.1232 55.7985C82.9693 55.7985 80.3007 58.4672 80.3007 61.621C80.3007 64.7749 82.9693 67.4435 86.1232 67.4435C89.277 67.4435 91.9456 64.7749 91.9456 61.621C92.1882 58.4672 89.5196 55.7985 86.1232 55.7985Z" fill="white" fill-opacity="0.2"/>
<path d="M113.053 83.4557C109.899 83.4557 107.231 86.1243 107.231 89.2781C107.231 92.432 109.899 95.1006 113.053 95.1006C116.207 95.1006 118.876 92.432 118.876 89.2781C118.876 86.1243 116.207 83.4557 113.053 83.4557Z" fill="white" fill-opacity="0.2"/>
<path d="M86.1232 83.4557C82.9693 83.4557 80.3007 86.1243 80.3007 89.2781C80.3007 92.432 82.9693 95.1006 86.1232 95.1006C89.277 95.1006 91.9456 92.432 91.9456 89.2781C91.9456 86.1243 89.5196 83.4557 86.1232 83.4557Z" fill="white" fill-opacity="0.2"/>
<path d="M113.053 111.355C109.899 111.355 107.231 114.024 107.231 117.178C107.231 120.331 109.899 123 113.053 123C116.207 123 118.876 120.331 118.876 117.178C118.876 114.024 116.207 111.355 113.053 111.355Z" fill="white" fill-opacity="0.2"/>
<path d="M86.1232 111.355C82.9693 111.355 80.3007 114.024 80.3007 117.178C80.3007 120.331 82.9693 123 86.1232 123C89.277 123 91.9456 120.331 91.9456 117.178C92.1882 114.024 89.5196 111.355 86.1232 111.355Z" fill="white" fill-opacity="0.2"/>
</svg>
